<svg width="214" height="201" viewBox="0 0 214 201" fill="none" xmlns="http://www.w3.org/2000/svg">
<g clip-path="url(#clip0_982_8911)">
<path d="M67.7667 140.555C80.8442 149.488 93.9225 156.635 107 156.635C120.078 156.635 133.156 149.488 146.233 140.555C135.454 137.473 129.985 132.873 129.827 126.753C129.827 125.663 129.835 124.113 129.843 121.205C129.843 120.743 129.844 120.27 129.847 119.786C129.868 111.987 129.903 101.696 129.952 91.2439C140.176 78.7974 136.42 64.2054 133.216 64.5692C129.289 65.0181 95.2607 34.6886 88.7337 33.1335C82.2067 31.5784 65.6267 36.5987 62.7733 50.585C59.92 64.5712 58.7273 99.8253 69.55 113.9C72.6297 117.905 77.4804 119.472 84.102 118.6C84.1113 121.527 84.1298 123.17 84.1733 126.485C84.0885 132.883 78.62 137.477 67.7667 140.555Z" fill="url(#paint0_linear_982_8911)"/>
<path d="M84.1733 118.59C99.8667 116.915 109.853 110.55 109.853 110.55C109.853 110.55 98.44 123.95 84.1733 126.63V118.59Z" fill="#FC9F6A"/>
<path d="M135.177 91.455C140.092 80.3531 159.787 57.7426 142.809 43.6726C137.103 17.5426 105.573 20.435 84.53 26.465C70.3868 30.5178 59.706 38.525 57.4234 32.495C43.1567 43.6726 50.3014 54.605 59.706 57.7426C68.2418 60.5901 82.6754 63.4376 107.218 60.7576C111.602 60.2786 110.684 72.89 113.027 74.2534C116.542 76.2989 119.269 63.4376 128.905 67.2995C138.541 71.1614 132.823 89.0678 122.479 89.0678C118.913 89.0678 117.129 98.2783 126.759 102.633C133.75 105.86 131.983 98.6689 135.177 91.455Z" fill="url(#paint1_linear_982_8911)"/>
<path d="M181.9 161.006C188.691 173.976 192.6 203.886 192.6 203.886H21.4C21.4 203.886 25.3105 173.972 32.1 161.006C38.8895 148.041 78.538 136.015 78.538 136.015C100.447 144.05 113.854 144.05 135.441 136.01C135.441 136.01 175.109 148.037 181.9 161.006Z" fill="url(#paint2_linear_982_8911)"/>
<path d="M111.993 140.7L115.56 202.34H98.44L102.007 140.7C102.007 140.7 105.336 137.35 107 137.35C108.664 137.35 111.993 140.7 111.993 140.7Z" fill="url(#paint3_linear_982_8911)"/>
<path d="M112.806 153.224L101.589 147.136L102.007 140.7C104.226 138.467 105.891 137.35 107 137.35C108.109 137.35 109.774 138.467 111.993 140.7L112.807 153.224H112.806Z" fill="#645050"/>
<path d="M107 137.345L99.8667 149.41L77.7534 136.68L84.1734 127.97L107 135.89L129.827 127.97L136.247 136.68L114.133 149.41L107 137.345Z" fill="white"/>
</g>
<defs>
<linearGradient id="paint0_linear_982_8911" x1="103.52" y1="32.8615" x2="103.52" y2="156.635" gradientUnits="userSpaceOnUse">
<stop stop-color="#F7B186"/>
<stop offset="1" stop-color="#FFC299"/>
</linearGradient>
<linearGradient id="paint1_linear_982_8911" x1="99.4675" y1="22.3699" x2="99.4675" y2="103.427" gradientUnits="userSpaceOnUse">
<stop stop-color="#1D0024"/>
<stop offset="1" stop-color="#100014"/>
</linearGradient>
<linearGradient id="paint2_linear_982_8911" x1="107" y1="136.01" x2="107" y2="203.886" gradientUnits="userSpaceOnUse">
<stop stop-color="#1D0024"/>
<stop offset="1" stop-color="#100014"/>
</linearGradient>
<linearGradient id="paint3_linear_982_8911" x1="107" y1="137.35" x2="107" y2="202.34" gradientUnits="userSpaceOnUse">
<stop stop-color="#806A6A"/>
<stop offset="1" stop-color="#665654"/>
</linearGradient>
<clipPath id="clip0_982_8911">
<path d="M0 100.5C0 45.2715 44.7715 0 100 0H114C169.228 0 214 45.2715 214 100.5V100.5C214 155.728 169.228 201 114 201H100C44.7715 201 0 155.728 0 100.5V100.5Z" fill="white"/>
</clipPath>
</defs>
</svg>
